<svg height="6.82666in" style="shape-rendering:geometricPrecision; text-rendering:geometricPrecision; image-rendering:optimizeQuality; fill-rule:evenodd; clip-rule:evenodd" viewBox="0 0 6.82666 6.82666" width="6.82666in" xml:space="preserve" xmlns="http://www.w3.org/2000/svg" xmlns:xlink="http://www.w3.org/1999/xlink"><defs><style type="text/css">
   <![CDATA[
    .fil0 {fill:#454B53}
    .fil1 {fill:white}
   ]]>
  </style></defs><g id="Layer_x0020_1"><rect class="fil0" height="6.82667" rx="1.45635" ry="1.45635" width="6.82667"/><path class="fil1" d="M2.51357 2.2753l-0.648339 -0.00069685 0.812319 -0.817295 0.000125984 0.659161 -0.164106 0.158831zm2.29678 -0.324634c-0.069126,-0.119118 -0.430657,-0.256291 -0.618291,-0.256291l-0.483492 -3.93701e-006c0,0 -0.155236,-0.281035 -0.520213,-0.281035 -0.365319,-7.87402e-006 -0.340736,0.162787 -0.340736,0.301846l7.87402e-006 0.562 -0.165543 0.174724 -0.76452 0c0,0 -0.215291,0.142469 -0.215291,0.45035 0,0.307949 0.0955315,1.38093 0.737091,1.48012 0.759035,0.117559 0.889059,-0.235169 0.889059,-0.27763 0,-0.178701 0.00452362,-0.449291 0.00452362,-0.449291 0,0 0.222287,0.424685 0.557961,0.424685 0.335626,0 0.530921,0.192787 0.530921,0.391425l0 0.367445c0,0 -0.0125079,0.229969 -0.209819,0.229969l-0.421287 0c0,0 -0.138252,-0.107693 -0.138252,-0.256634 3.93701e-006,-0.148878 0.0676142,-0.189327 0.14648,-0.189327 0.0789488,0 0.143724,0.00906299 0.143724,0.00906299l0 -0.313098c0,0 -0.635701,-0.00415354 -0.635701,0.482665 0,0.486717 0.332406,0.611681 0.599035,0.611681l0.434252 0c0,0 0.784142,-0.100815 0.784142,-1.64999 0,-1.5493 -0.244862,-1.6934 -0.314051,-1.81267zm-0.779744 1.38874c0,0 0.0381732,-0.255504 0.186295,-0.255504 0.148201,0 0.351602,0.341169 0.351602,0.341169 0,-3.93701e-006 -0.464122,-0.0856654 -0.537898,-0.0856654z"/></g></svg>