<svg xmlns="http://www.w3.org/2000/svg" viewBox="0 0 32 32" fill="#414141" width="32" height="32"><path d="M28.8 0H3.2C1.4 0 0 1.4 0 3.2v25.6C0 30.6 1.4 32 3.2 32h25.6c1.8 0 3.2-1.4 3.2-3.2V3.2C32 1.4 30.6 0 28.8 0zm-3.7 11.7c-.1 7.4-4.8 12.4-11.9 12.8-2.9.1-5-.8-6.8-2 2.1.3 4.8-.5 6.2-1.7-2.1-.2-3.4-1.3-3.9-3 .6.1 1.2.1 1.8 0-1.9-.6-3.3-1.8-3.3-4.3.5.2 1.1.4 1.8.5-1.4-.8-2.5-3.8-1.3-5.7 2.1 2.3 4.7 4.2 8.8 4.5-1-4.5 4.9-6.9 7.4-3.9 1.1-.2 1.9-.6 2.7-1-.3 1-1 1.8-1.8 2.4.9-.1 1.6-.3 2.3-.7-.3.7-1.2 1.5-2 2.1z"/></svg>